<svg width="500" height="147" viewBox="0 0 500 147" fill="none" xmlns="http://www.w3.org/2000/svg">
<path d="M42.7656 111.094H37.6562V124.219H41.9688C42.3438 124.219 42.7188 124.203 43.0938 124.172C46.7188 123.766 48.5312 121.531 48.5312 117.469C48.5312 116.531 48.4062 115.656 48.1562 114.844C47.3438 112.344 45.5469 111.094 42.7656 111.094ZM42.3438 138H29.875V136.781H33.625V111.094H29.875V109.875H43.75C45.75 109.875 47.4688 110.219 48.9062 110.906C51.5938 112.156 52.9375 114.328 52.9375 117.422C52.9375 118.859 52.6094 120.125 51.9531 121.219C50.2969 124.125 46.9062 125.578 41.7812 125.578H37.6562V136.781H41.125C41.2812 136.781 41.4375 136.797 41.5938 136.828C42.0938 136.922 42.3438 137.312 42.3438 138ZM65.4531 136.828C65.6406 136.828 65.7969 136.844 65.9219 136.875C66.3906 136.938 66.625 137.312 66.625 138H55.8906V136.828C56.9531 136.828 57.7188 136.75 58.1875 136.594C59 136.312 59.4062 135.453 59.4062 134.016V108.703H55.8906V107.531H62.9219V136.828H65.4531ZM92.0312 136.828C92.2188 136.828 92.375 136.844 92.5 136.875C92.9688 136.938 93.2031 137.312 93.2031 138H86.5938L86.2656 133.219C85.9219 134.094 85.4688 134.891 84.9062 135.609C83.4062 137.516 81.4844 138.469 79.1406 138.469C74.7031 138.438 72.4688 135.75 72.4375 130.406V119.25H68.8281V118.078H75.9531V131.109C75.9531 131.609 75.9844 132.078 76.0469 132.516C76.4531 135.141 77.9375 136.453 80.5 136.453C81.4375 136.453 82.3438 136.156 83.2188 135.562C85.1875 134.25 86.1719 132.188 86.1719 129.375V119.25H82.3281V118.078H89.6875V136.828H92.0312ZM105.016 136.828C105.172 136.828 105.328 136.844 105.484 136.875C105.953 136.969 106.188 137.344 106.188 138H95.875V136.828C96.9375 136.828 97.7031 136.75 98.1719 136.594C98.9844 136.312 99.3906 135.453 99.3906 134.016V119.25H95.875V118.078H102.672L102.859 122.766C103.172 121.922 103.594 121.156 104.125 120.469C105.594 118.562 107.453 117.609 109.703 117.609C110.297 117.609 110.875 117.719 111.438 117.938C113.344 118.656 114.578 120.25 115.141 122.719C115.391 122.094 115.703 121.5 116.078 120.938C117.516 118.719 119.422 117.609 121.797 117.609C122.891 117.609 123.906 117.891 124.844 118.453C126.938 119.734 127.984 121.984 127.984 125.203V136.828H130.375C130.562 136.828 130.719 136.844 130.844 136.875C131.312 136.938 131.547 137.312 131.547 138H121.188V136.828C122.25 136.828 123 136.75 123.438 136.594C124.125 136.312 124.469 135.453 124.469 134.016V124.734C124.469 123.734 124.312 122.844 124 122.062C123.344 120.406 122.219 119.578 120.625 119.578C120.031 119.578 119.406 119.734 118.75 120.047C117.031 120.953 115.922 122.547 115.422 124.828V125.203V136.828H117.531C117.719 136.828 117.875 136.844 118 136.875C118.469 136.938 118.703 137.312 118.703 138H108.625V136.828C109.688 136.828 110.438 136.75 110.875 136.594C111.562 136.312 111.906 135.453 111.906 134.016V124.734C111.906 123.797 111.781 122.953 111.531 122.203C110.938 120.484 109.859 119.625 108.297 119.625C107.453 119.625 106.609 119.938 105.766 120.562C103.953 121.906 103 123.953 102.906 126.703V136.828H105.016ZM147.062 138.469C146.844 138.469 146.609 138.453 146.359 138.422C143.641 138.234 141.609 137.062 140.266 134.906L139.844 138H133.938V136.828C135 136.828 135.766 136.75 136.234 136.594C137.047 136.312 137.453 135.453 137.453 134.016V108.703H133.938V107.531H140.969V123.047C141.062 122.766 141.188 122.484 141.344 122.203C142.781 119.141 145.203 117.609 148.609 117.609C150.672 117.609 152.406 118.312 153.812 119.719C155.688 121.656 156.625 124.344 156.625 127.781C156.625 130.844 155.75 133.375 154 135.375C152.125 137.438 149.812 138.469 147.062 138.469ZM147.156 119.484C145.875 119.484 144.734 119.922 143.734 120.797C141.859 122.484 140.922 125.219 140.922 129C140.922 130.719 141.156 132.234 141.625 133.547C142.594 136.047 144.25 137.297 146.594 137.297C147.5 137.297 148.328 137.094 149.078 136.688C151.453 135.375 152.641 132.516 152.641 128.109C152.641 126.641 152.484 125.328 152.172 124.172C151.391 121.047 149.719 119.484 147.156 119.484ZM169.516 136.828C169.672 136.828 169.828 136.844 169.984 136.875C170.453 136.938 170.688 137.312 170.688 138H159.906V136.828C160.969 136.828 161.734 136.766 162.203 136.641C163.172 136.328 163.656 135.453 163.656 134.016V119.25H159.906V118.078H167.172V136.828H169.516ZM167.734 111.234C167.734 111.609 167.656 111.969 167.5 112.312C167.062 113.312 166.297 113.812 165.203 113.812C164.859 113.812 164.516 113.75 164.172 113.625C163.141 113.188 162.625 112.391 162.625 111.234C162.625 110.859 162.703 110.5 162.859 110.156C163.328 109.156 164.109 108.656 165.203 108.656C165.547 108.656 165.906 108.734 166.281 108.891C167.25 109.359 167.734 110.141 167.734 111.234ZM182.641 136.828C182.828 136.828 182.984 136.844 183.109 136.875C183.578 136.938 183.812 137.312 183.812 138H173.5V136.828C174.562 136.828 175.328 136.75 175.797 136.594C176.609 136.312 177.016 135.453 177.016 134.016V119.25H173.5V118.078H180.297L180.484 122.766C180.828 121.891 181.281 121.094 181.844 120.375C183.344 118.531 185.25 117.609 187.562 117.609C188.719 117.609 189.797 117.906 190.797 118.5C192.953 119.844 194.031 122.078 194.031 125.203V136.828H196.375C196.562 136.828 196.719 136.844 196.844 136.875C197.312 136.938 197.547 137.312 197.547 138H187V136.828C188.062 136.828 188.828 136.75 189.297 136.594C190.109 136.312 190.516 135.453 190.516 134.016V124.734C190.516 123.828 190.375 123.016 190.094 122.297C189.406 120.516 188.109 119.625 186.203 119.625C185.328 119.625 184.469 119.891 183.625 120.422C181.656 121.703 180.625 123.797 180.531 126.703V136.828H182.641ZM204.812 125.016C204.844 129.234 206.406 131.375 209.5 131.438C212.531 131.406 214.078 129.266 214.141 125.016C214.109 120.922 212.562 118.844 209.5 118.781C206.438 118.812 204.875 120.891 204.812 125.016ZM209.547 117.609C211.172 117.609 212.688 117.969 214.094 118.688C214.281 118.094 214.547 117.547 214.891 117.047C215.797 115.734 216.984 115.078 218.453 115.078C218.797 115.078 219.141 115.141 219.484 115.266C220.391 115.609 220.844 116.266 220.844 117.234C220.719 118.047 220.266 118.547 219.484 118.734C219.203 118.734 218.891 118.578 218.547 118.266C218.047 117.797 217.578 117.562 217.141 117.562C217.016 117.562 216.891 117.578 216.766 117.609C215.984 117.797 215.453 118.391 215.172 119.391C216.953 120.797 217.859 122.672 217.891 125.016C217.891 126.859 217.297 128.453 216.109 129.797C214.453 131.672 212.234 132.609 209.453 132.609L205.328 132.562C205.078 132.562 204.844 132.578 204.625 132.609C203.594 132.828 203.078 133.344 203.078 134.156C203.109 135.312 203.844 135.938 205.281 136.031L213.812 136.219C214.25 136.219 214.672 136.25 215.078 136.312C218.172 136.719 219.719 138.266 219.719 140.953C219.719 141.828 219.469 142.656 218.969 143.438C217.438 145.75 214.297 146.906 209.547 146.906C207.672 146.906 206.094 146.625 204.812 146.062C202.781 145.219 201.766 143.938 201.766 142.219C201.766 141.094 202.281 139.984 203.312 138.891C202 138.078 201.328 136.844 201.297 135.188C201.297 134.781 201.344 134.375 201.438 133.969C201.938 132.25 203.188 131.391 205.188 131.391C204.969 131.266 204.75 131.125 204.531 130.969C202.219 129.406 201.062 127.438 201.062 125.062C201.062 123.25 201.656 121.672 202.844 120.328C204.5 118.516 206.734 117.609 209.547 117.609ZM209.547 145.688C211.016 145.688 212.375 145.531 213.625 145.219C216.188 144.594 217.469 143.594 217.469 142.219C217.469 141.844 217.422 141.531 217.328 141.281C216.953 140.25 215.594 139.719 213.25 139.688L206.031 139.594C205.625 139.594 205.109 139.531 204.484 139.406C203.766 140.25 203.391 141.094 203.359 141.938C203.359 142.375 203.469 142.812 203.688 143.25C204.5 144.875 206.453 145.688 209.547 145.688ZM248.734 138.469C246.547 138.438 245.266 137.031 244.891 134.25C244.609 134.906 244.188 135.531 243.625 136.125C242.062 137.688 240.141 138.469 237.859 138.469C236.922 138.469 236.031 138.297 235.188 137.953C233.094 137.078 232.047 135.453 232.047 133.078C232.047 132.391 232.141 131.75 232.328 131.156C233.391 128.094 237.594 126.562 244.938 126.562V123.609C244.844 120.578 243.328 118.969 240.391 118.781C239.141 118.781 238.219 119.172 237.625 119.953C237.469 120.172 237.172 120.859 236.734 122.016C236.391 122.922 235.859 123.375 235.141 123.375C234.984 123.375 234.828 123.359 234.672 123.328C233.766 123.172 233.312 122.609 233.312 121.641C233.312 121.109 233.5 120.578 233.875 120.047C235.062 118.422 237.406 117.609 240.906 117.609C241.188 117.609 241.469 117.609 241.75 117.609C246.219 117.859 248.453 120.219 248.453 124.688V134.578C248.484 136.141 248.906 136.953 249.719 137.016C250.719 136.984 251.328 135.828 251.547 133.547L252.766 133.594C252.766 133.75 252.75 133.922 252.719 134.109C252.469 137.016 251.141 138.469 248.734 138.469ZM239.406 136.594C240.094 136.594 240.797 136.438 241.516 136.125C243.328 135.25 244.469 133.734 244.938 131.578V127.828C242.5 127.859 240.641 128.016 239.359 128.297C236.953 128.859 235.75 130.188 235.75 132.281C235.75 132.812 235.797 133.297 235.891 133.734C236.328 135.641 237.5 136.594 239.406 136.594ZM263.547 136.828C263.734 136.828 263.891 136.844 264.016 136.875C264.484 136.938 264.719 137.312 264.719 138H254.406V136.828C255.469 136.828 256.234 136.75 256.703 136.594C257.516 136.312 257.922 135.453 257.922 134.016V119.25H254.406V118.078H261.203L261.391 122.766C261.734 121.891 262.188 121.094 262.75 120.375C264.25 118.531 266.156 117.609 268.469 117.609C269.625 117.609 270.703 117.906 271.703 118.5C273.859 119.844 274.938 122.078 274.938 125.203V136.828H277.281C277.469 136.828 277.625 136.844 277.75 136.875C278.219 136.938 278.453 137.312 278.453 138H267.906V136.828C268.969 136.828 269.734 136.75 270.203 136.594C271.016 136.312 271.422 135.453 271.422 134.016V124.734C271.422 123.828 271.281 123.016 271 122.297C270.312 120.516 269.016 119.625 267.109 119.625C266.234 119.625 265.375 119.891 264.531 120.422C262.562 121.703 261.531 123.797 261.438 126.703V136.828H263.547ZM297.484 138L297.109 133.031C295.578 136.594 293.109 138.406 289.703 138.469C288.047 138.469 286.531 137.984 285.156 137.016C282.719 135.234 281.5 132.406 281.5 128.531C281.5 126.188 282.031 124.078 283.094 122.203C284.844 119.141 287.438 117.609 290.875 117.609C293.469 117.609 295.531 118.453 297.062 120.141V108.703H292.609V107.531H300.578L300.672 136.828H303.016C303.203 136.828 303.359 136.844 303.484 136.875C303.953 136.938 304.188 137.312 304.188 138H297.484ZM285.484 127.969C285.484 129.438 285.641 130.75 285.953 131.906C286.734 135.031 288.406 136.594 290.969 136.594C292.25 136.594 293.391 136.141 294.391 135.234C296.266 133.547 297.203 130.828 297.203 127.078C297.203 125.297 296.938 123.75 296.406 122.438C295.438 120 293.812 118.781 291.531 118.781C290.625 118.781 289.797 118.984 289.047 119.391C286.672 120.703 285.484 123.562 285.484 127.969ZM327.812 138H316.328V136.781H320.078V111.094H316.328V109.875H327.812V111.094H324.109V122.812H338.5V111.094H334.75V109.875H346.234V111.094H342.531V136.781H345.016C345.172 136.781 345.328 136.797 345.484 136.828C345.984 136.922 346.234 137.312 346.234 138H334.75V136.781H338.5V124.172H324.109V136.781H326.594C326.75 136.781 326.906 136.797 327.062 136.828C327.562 136.922 327.812 137.312 327.812 138ZM359.781 118.781C358.969 118.781 358.203 118.969 357.484 119.344C355.297 120.438 354.125 122.781 353.969 126.375L358.938 126.516C360.375 126.547 361.484 126.484 362.266 126.328C363.766 125.984 364.516 125.031 364.516 123.469C364.516 122.781 364.391 122.141 364.141 121.547C363.422 119.703 361.969 118.781 359.781 118.781ZM367.938 133.5C367.75 133.938 367.531 134.375 367.281 134.812C365.688 137.25 363.203 138.469 359.828 138.469C357.703 138.469 355.812 137.922 354.156 136.828C351.375 134.953 349.984 132.078 349.984 128.203C349.984 126.078 350.422 124.172 351.297 122.484C352.984 119.234 355.781 117.609 359.688 117.609C361.688 117.609 363.453 118.062 364.984 118.969C367.141 120.219 368.219 121.906 368.219 124.031C368.219 125.188 367.797 126.078 366.953 126.703C365.859 127.484 363.406 127.844 359.594 127.781L353.969 127.688C354 129 354.141 130.203 354.391 131.297C355.234 135.203 357.297 137.156 360.578 137.156C360.859 137.156 361.156 137.141 361.469 137.109C363.906 136.797 365.672 135.453 366.766 133.078L367.938 133.5ZM388.188 138.469C386 138.438 384.719 137.031 384.344 134.25C384.062 134.906 383.641 135.531 383.078 136.125C381.516 137.688 379.594 138.469 377.312 138.469C376.375 138.469 375.484 138.297 374.641 137.953C372.547 137.078 371.5 135.453 371.5 133.078C371.5 132.391 371.594 131.75 371.781 131.156C372.844 128.094 377.047 126.562 384.391 126.562V123.609C384.297 120.578 382.781 118.969 379.844 118.781C378.594 118.781 377.672 119.172 377.078 119.953C376.922 120.172 376.625 120.859 376.188 122.016C375.844 122.922 375.312 123.375 374.594 123.375C374.438 123.375 374.281 123.359 374.125 123.328C373.219 123.172 372.766 122.609 372.766 121.641C372.766 121.109 372.953 120.578 373.328 120.047C374.516 118.422 376.859 117.609 380.359 117.609C380.641 117.609 380.922 117.609 381.203 117.609C385.672 117.859 387.906 120.219 387.906 124.688V134.578C387.938 136.141 388.359 136.953 389.172 137.016C390.172 136.984 390.781 135.828 391 133.547L392.219 133.594C392.219 133.75 392.203 133.922 392.172 134.109C391.922 137.016 390.594 138.469 388.188 138.469ZM378.859 136.594C379.547 136.594 380.25 136.438 380.969 136.125C382.781 135.25 383.922 133.734 384.391 131.578V127.828C381.953 127.859 380.094 128.016 378.812 128.297C376.406 128.859 375.203 130.188 375.203 132.281C375.203 132.812 375.25 133.297 375.344 133.734C375.781 135.641 376.953 136.594 378.859 136.594ZM393.391 119.25V118.078H396.672V113.625L400.188 112.641V118.078H407.453V119.25H400.188V133.5C400.219 135.844 401.078 137.047 402.766 137.109C404.266 136.891 405.406 135.484 406.188 132.891L407.453 133.125C407.453 133.156 407.453 133.188 407.453 133.219C406.734 136.75 404.938 138.516 402.062 138.516C398.688 138.391 396.891 136.375 396.672 132.469V119.25H393.391ZM418.703 136.828C418.859 136.828 419.016 136.844 419.172 136.875C419.641 136.938 419.875 137.312 419.875 138H409.094V136.828C410.156 136.828 410.922 136.766 411.391 136.641C412.359 136.328 412.844 135.453 412.844 134.016V119.25H409.094V118.078H416.359V136.828H418.703ZM416.922 111.234C416.922 111.609 416.844 111.969 416.688 112.312C416.25 113.312 415.484 113.812 414.391 113.812C414.047 113.812 413.703 113.75 413.359 113.625C412.328 113.188 411.812 112.391 411.812 111.234C411.812 110.859 411.891 110.5 412.047 110.156C412.516 109.156 413.297 108.656 414.391 108.656C414.734 108.656 415.094 108.734 415.469 108.891C416.438 109.359 416.922 110.141 416.922 111.234ZM431.828 136.828C432.016 136.828 432.172 136.844 432.297 136.875C432.766 136.938 433 137.312 433 138H422.688V136.828C423.75 136.828 424.516 136.75 424.984 136.594C425.797 136.312 426.203 135.453 426.203 134.016V119.25H422.688V118.078H429.484L429.672 122.766C430.016 121.891 430.469 121.094 431.031 120.375C432.531 118.531 434.438 117.609 436.75 117.609C437.906 117.609 438.984 117.906 439.984 118.5C442.141 119.844 443.219 122.078 443.219 125.203V136.828H445.562C445.75 136.828 445.906 136.844 446.031 136.875C446.5 136.938 446.734 137.312 446.734 138H436.188V136.828C437.25 136.828 438.016 136.75 438.484 136.594C439.297 136.312 439.703 135.453 439.703 134.016V124.734C439.703 123.828 439.562 123.016 439.281 122.297C438.594 120.516 437.297 119.625 435.391 119.625C434.516 119.625 433.656 119.891 432.812 120.422C430.844 121.703 429.812 123.797 429.719 126.703V136.828H431.828ZM454 125.016C454.031 129.234 455.594 131.375 458.688 131.438C461.719 131.406 463.266 129.266 463.328 125.016C463.297 120.922 461.75 118.844 458.688 118.781C455.625 118.812 454.062 120.891 454 125.016ZM458.734 117.609C460.359 117.609 461.875 117.969 463.281 118.688C463.469 118.094 463.734 117.547 464.078 117.047C464.984 115.734 466.172 115.078 467.641 115.078C467.984 115.078 468.328 115.141 468.672 115.266C469.578 115.609 470.031 116.266 470.031 117.234C469.906 118.047 469.453 118.547 468.672 118.734C468.391 118.734 468.078 118.578 467.734 118.266C467.234 117.797 466.766 117.562 466.328 117.562C466.203 117.562 466.078 117.578 465.953 117.609C465.172 117.797 464.641 118.391 464.359 119.391C466.141 120.797 467.047 122.672 467.078 125.016C467.078 126.859 466.484 128.453 465.297 129.797C463.641 131.672 461.422 132.609 458.641 132.609L454.516 132.562C454.266 132.562 454.031 132.578 453.812 132.609C452.781 132.828 452.266 133.344 452.266 134.156C452.297 135.312 453.031 135.938 454.469 136.031L463 136.219C463.438 136.219 463.859 136.25 464.266 136.312C467.359 136.719 468.906 138.266 468.906 140.953C468.906 141.828 468.656 142.656 468.156 143.438C466.625 145.75 463.484 146.906 458.734 146.906C456.859 146.906 455.281 146.625 454 146.062C451.969 145.219 450.953 143.938 450.953 142.219C450.953 141.094 451.469 139.984 452.5 138.891C451.188 138.078 450.516 136.844 450.484 135.188C450.484 134.781 450.531 134.375 450.625 133.969C451.125 132.25 452.375 131.391 454.375 131.391C454.156 131.266 453.938 131.125 453.719 130.969C451.406 129.406 450.25 127.438 450.25 125.062C450.25 123.25 450.844 121.672 452.031 120.328C453.688 118.516 455.922 117.609 458.734 117.609ZM458.734 145.688C460.203 145.688 461.562 145.531 462.812 145.219C465.375 144.594 466.656 143.594 466.656 142.219C466.656 141.844 466.609 141.531 466.516 141.281C466.141 140.25 464.781 139.719 462.438 139.688L455.219 139.594C454.812 139.594 454.297 139.531 453.672 139.406C452.953 140.25 452.578 141.094 452.547 141.938C452.547 142.375 452.656 142.812 452.875 143.25C453.688 144.875 455.641 145.688 458.734 145.688Z" fill="#00308F"/>
<rect width="500" height="90" rx="15" fill="#01308F"/>
<path d="M68.375 77.625C60.4583 81.9583 52.3333 84.1667 44 84.25C32.1667 84.25 22.625 80.375 15.375 72.625C8.625 65.2083 5.25 56.125 5.25 45.375C5.25 36.375 7.75 28.4167 12.75 21.5C19.9167 11.6667 30.25 6.75 43.75 6.75C53.0833 6.75 61.125 8.95833 67.875 13.375C67.875 11.625 67.9583 10.2917 68.125 9.375C68.4583 8.04167 69.625 7.375 71.625 7.375L72 31H68.5C64.4167 17.4167 56.5417 10.5417 44.875 10.375C41.125 10.375 37.75 11.125 34.75 12.625C25.4167 17.375 20.75 28.25 20.75 45.25C20.75 46.8333 20.7917 48.4167 20.875 50C21.9583 70.4167 29.75 80.625 44.25 80.625C56.6667 80.5417 64.9167 73.5417 69 59.625H72.375V83.625C71.4583 83.625 70.7083 83.5417 70.125 83.375C68.875 82.9583 68.2917 81.0417 68.375 77.625ZM114.125 83H80.75V79.75H90.75V11.25H80.75V8H114.125V11.25H104.125V42.5H139.875V11.25H129.875V8H163.375V11.25H153.25V79.75H160C161.583 79.9167 162.708 81 163.375 83H129.875V79.75H139.875V46.125H104.125V79.75H110.875C111.292 79.75 111.708 79.7917 112.125 79.875C113.458 80.125 114.125 81.1667 114.125 83ZM204.75 83H171.375V79.75H181.375V11.25H171.375V8H210.25C216.833 8 222.417 9.54167 227 12.625C232.417 16.375 235.125 21.3333 235.125 27.5C235.125 29.75 234.75 31.9583 234 34.125C231.5 40.7917 226 45.2083 217.5 47.375L237.375 79.75H240.875C241.375 79.75 241.833 79.7917 242.25 79.875C243.417 80.0417 244 81.0833 244 83H223.875L204.375 48.625H194.75V79.75H204.75V83ZM205 11.25H194.75V45H205.625C208.958 45 211.875 44.0417 214.375 42.125C218.458 38.875 220.5 34.125 220.5 27.875C220.5 25.2917 220.042 22.8333 219.125 20.5C216.708 14.3333 212 11.25 205 11.25ZM281.375 83H248V79.75H258V11.25H248V8H281.375V11.25H271.375V79.75H278.125C278.542 79.75 278.958 79.7917 279.375 79.875C280.708 80.125 281.375 81.1667 281.375 83ZM347.75 62.875C347.75 68.125 345.875 72.625 342.125 76.375C336.708 81.625 329 84.25 319 84.25C310.417 84.25 302.958 82.125 296.625 77.875C296.625 79.4583 296.542 80.625 296.375 81.375C295.958 82.625 294.708 83.25 292.625 83.25V57.125H296.875C297.042 59.7917 297.458 62.2917 298.125 64.625C300.875 75.375 307.542 80.75 318.125 80.75C321.042 80.75 323.75 80.2083 326.25 79.125C331.583 76.7917 334.25 72.7083 334.25 66.875C334.25 64.7917 333.792 62.875 332.875 61.125C330.958 57.625 326.333 54.125 319 50.625C310.917 46.875 306.25 44.625 305 43.875C297.167 39.375 293.25 33.625 293.25 26.625C293.25 21.875 294.958 17.7917 298.375 14.375C303.375 9.29167 310.542 6.75 319.875 6.75C327.375 6.75 334.292 8.375 340.625 11.625C340.625 10.875 340.667 10.2083 340.75 9.625C341.083 8.125 342.375 7.375 344.625 7.375V29.5H340.375C340.375 24.9167 339.25 21 337 17.75C333.417 12.8333 328.167 10.375 321.25 10.375C318.833 10.375 316.583 10.75 314.5 11.5C309.417 13.5 306.875 17.125 306.875 22.375C306.875 24.4583 307.333 26.3333 308.25 28C310.083 31.5 314.625 34.9167 321.875 38.25C329.958 42 334.667 44.2917 336 45.125C343.833 49.7083 347.75 55.625 347.75 62.875ZM407.375 83H370.125V79.75H382V11.25H377.125C370.375 11.3333 365.75 15.5833 363.25 24L360.5 33.5H356.875L357.375 8H420.375L421 33.5H417.375L414.625 24C412.208 15.5833 407.542 11.3333 400.625 11.25H395.375V79.75H404C405.583 79.9167 406.708 81 407.375 83ZM477.25 83H443.25V79.75H453.5V52.375L430.375 11.25H423.875V8H454.875V11.25H445.375L464.625 47L482.75 11.25H472.75V8H494.875C494.875 8.41667 494.833 8.83333 494.75 9.25C494.5 10.5833 493.458 11.25 491.625 11.25C488.875 11.3333 486.667 12.5 485 14.75L467 51.25V79.75H473.875C475.458 79.9167 476.583 81 477.25 83Z" fill="white"/>
</svg>
