<svg width="971" height="90" viewBox="0 0 971 90" fill="none" xmlns="http://www.w3.org/2000/svg">
<path d="M542.766 32.0938H537.656V45.2188H541.969C542.344 45.2188 542.719 45.2031 543.094 45.1719C546.719 44.7656 548.531 42.5312 548.531 38.4688C548.531 37.5312 548.406 36.6562 548.156 35.8438C547.344 33.3438 545.547 32.0938 542.766 32.0938ZM542.344 59H529.875V57.7812H533.625V32.0938H529.875V30.875H543.75C545.75 30.875 547.469 31.2188 548.906 31.9062C551.594 33.1562 552.938 35.3281 552.938 38.4219C552.938 39.8594 552.609 41.125 551.953 42.2188C550.297 45.125 546.906 46.5781 541.781 46.5781H537.656V57.7812H541.125C541.281 57.7812 541.438 57.7969 541.594 57.8281C542.094 57.9219 542.344 58.3125 542.344 59ZM565.453 57.8281C565.641 57.8281 565.797 57.8438 565.922 57.875C566.391 57.9375 566.625 58.3125 566.625 59H555.891V57.8281C556.953 57.8281 557.719 57.75 558.188 57.5938C559 57.3125 559.406 56.4531 559.406 55.0156V29.7031H555.891V28.5312H562.922V57.8281H565.453ZM592.031 57.8281C592.219 57.8281 592.375 57.8438 592.5 57.875C592.969 57.9375 593.203 58.3125 593.203 59H586.594L586.266 54.2188C585.922 55.0938 585.469 55.8906 584.906 56.6094C583.406 58.5156 581.484 59.4688 579.141 59.4688C574.703 59.4375 572.469 56.75 572.438 51.4062V40.25H568.828V39.0781H575.953V52.1094C575.953 52.6094 575.984 53.0781 576.047 53.5156C576.453 56.1406 577.938 57.4531 580.5 57.4531C581.438 57.4531 582.344 57.1562 583.219 56.5625C585.188 55.25 586.172 53.1875 586.172 50.375V40.25H582.328V39.0781H589.688V57.8281H592.031ZM605.016 57.8281C605.172 57.8281 605.328 57.8438 605.484 57.875C605.953 57.9688 606.188 58.3438 606.188 59H595.875V57.8281C596.938 57.8281 597.703 57.75 598.172 57.5938C598.984 57.3125 599.391 56.4531 599.391 55.0156V40.25H595.875V39.0781H602.672L602.859 43.7656C603.172 42.9219 603.594 42.1562 604.125 41.4688C605.594 39.5625 607.453 38.6094 609.703 38.6094C610.297 38.6094 610.875 38.7188 611.438 38.9375C613.344 39.6562 614.578 41.25 615.141 43.7188C615.391 43.0938 615.703 42.5 616.078 41.9375C617.516 39.7188 619.422 38.6094 621.797 38.6094C622.891 38.6094 623.906 38.8906 624.844 39.4531C626.938 40.7344 627.984 42.9844 627.984 46.2031V57.8281H630.375C630.562 57.8281 630.719 57.8438 630.844 57.875C631.312 57.9375 631.547 58.3125 631.547 59H621.188V57.8281C622.25 57.8281 623 57.75 623.438 57.5938C624.125 57.3125 624.469 56.4531 624.469 55.0156V45.7344C624.469 44.7344 624.312 43.8438 624 43.0625C623.344 41.4062 622.219 40.5781 620.625 40.5781C620.031 40.5781 619.406 40.7344 618.75 41.0469C617.031 41.9531 615.922 43.5469 615.422 45.8281V46.2031V57.8281H617.531C617.719 57.8281 617.875 57.8438 618 57.875C618.469 57.9375 618.703 58.3125 618.703 59H608.625V57.8281C609.688 57.8281 610.438 57.75 610.875 57.5938C611.562 57.3125 611.906 56.4531 611.906 55.0156V45.7344C611.906 44.7969 611.781 43.9531 611.531 43.2031C610.938 41.4844 609.859 40.625 608.297 40.625C607.453 40.625 606.609 40.9375 605.766 41.5625C603.953 42.9062 603 44.9531 602.906 47.7031V57.8281H605.016ZM647.062 59.4688C646.844 59.4688 646.609 59.4531 646.359 59.4219C643.641 59.2344 641.609 58.0625 640.266 55.9062L639.844 59H633.938V57.8281C635 57.8281 635.766 57.75 636.234 57.5938C637.047 57.3125 637.453 56.4531 637.453 55.0156V29.7031H633.938V28.5312H640.969V44.0469C641.062 43.7656 641.188 43.4844 641.344 43.2031C642.781 40.1406 645.203 38.6094 648.609 38.6094C650.672 38.6094 652.406 39.3125 653.812 40.7188C655.688 42.6562 656.625 45.3438 656.625 48.7812C656.625 51.8438 655.75 54.375 654 56.375C652.125 58.4375 649.812 59.4688 647.062 59.4688ZM647.156 40.4844C645.875 40.4844 644.734 40.9219 643.734 41.7969C641.859 43.4844 640.922 46.2188 640.922 50C640.922 51.7188 641.156 53.2344 641.625 54.5469C642.594 57.0469 644.25 58.2969 646.594 58.2969C647.5 58.2969 648.328 58.0938 649.078 57.6875C651.453 56.375 652.641 53.5156 652.641 49.1094C652.641 47.6406 652.484 46.3281 652.172 45.1719C651.391 42.0469 649.719 40.4844 647.156 40.4844ZM669.516 57.8281C669.672 57.8281 669.828 57.8438 669.984 57.875C670.453 57.9375 670.688 58.3125 670.688 59H659.906V57.8281C660.969 57.8281 661.734 57.7656 662.203 57.6406C663.172 57.3281 663.656 56.4531 663.656 55.0156V40.25H659.906V39.0781H667.172V57.8281H669.516ZM667.734 32.2344C667.734 32.6094 667.656 32.9688 667.5 33.3125C667.062 34.3125 666.297 34.8125 665.203 34.8125C664.859 34.8125 664.516 34.75 664.172 34.625C663.141 34.1875 662.625 33.3906 662.625 32.2344C662.625 31.8594 662.703 31.5 662.859 31.1562C663.328 30.1562 664.109 29.6562 665.203 29.6562C665.547 29.6562 665.906 29.7344 666.281 29.8906C667.25 30.3594 667.734 31.1406 667.734 32.2344ZM682.641 57.8281C682.828 57.8281 682.984 57.8438 683.109 57.875C683.578 57.9375 683.812 58.3125 683.812 59H673.5V57.8281C674.562 57.8281 675.328 57.75 675.797 57.5938C676.609 57.3125 677.016 56.4531 677.016 55.0156V40.25H673.5V39.0781H680.297L680.484 43.7656C680.828 42.8906 681.281 42.0938 681.844 41.375C683.344 39.5312 685.25 38.6094 687.562 38.6094C688.719 38.6094 689.797 38.9062 690.797 39.5C692.953 40.8438 694.031 43.0781 694.031 46.2031V57.8281H696.375C696.562 57.8281 696.719 57.8438 696.844 57.875C697.312 57.9375 697.547 58.3125 697.547 59H687V57.8281C688.062 57.8281 688.828 57.75 689.297 57.5938C690.109 57.3125 690.516 56.4531 690.516 55.0156V45.7344C690.516 44.8281 690.375 44.0156 690.094 43.2969C689.406 41.5156 688.109 40.625 686.203 40.625C685.328 40.625 684.469 40.8906 683.625 41.4219C681.656 42.7031 680.625 44.7969 680.531 47.7031V57.8281H682.641ZM704.812 46.0156C704.844 50.2344 706.406 52.375 709.5 52.4375C712.531 52.4062 714.078 50.2656 714.141 46.0156C714.109 41.9219 712.562 39.8438 709.5 39.7812C706.438 39.8125 704.875 41.8906 704.812 46.0156ZM709.547 38.6094C711.172 38.6094 712.688 38.9688 714.094 39.6875C714.281 39.0938 714.547 38.5469 714.891 38.0469C715.797 36.7344 716.984 36.0781 718.453 36.0781C718.797 36.0781 719.141 36.1406 719.484 36.2656C720.391 36.6094 720.844 37.2656 720.844 38.2344C720.719 39.0469 720.266 39.5469 719.484 39.7344C719.203 39.7344 718.891 39.5781 718.547 39.2656C718.047 38.7969 717.578 38.5625 717.141 38.5625C717.016 38.5625 716.891 38.5781 716.766 38.6094C715.984 38.7969 715.453 39.3906 715.172 40.3906C716.953 41.7969 717.859 43.6719 717.891 46.0156C717.891 47.8594 717.297 49.4531 716.109 50.7969C714.453 52.6719 712.234 53.6094 709.453 53.6094L705.328 53.5625C705.078 53.5625 704.844 53.5781 704.625 53.6094C703.594 53.8281 703.078 54.3438 703.078 55.1562C703.109 56.3125 703.844 56.9375 705.281 57.0312L713.812 57.2188C714.25 57.2188 714.672 57.25 715.078 57.3125C718.172 57.7188 719.719 59.2656 719.719 61.9531C719.719 62.8281 719.469 63.6562 718.969 64.4375C717.438 66.75 714.297 67.9062 709.547 67.9062C707.672 67.9062 706.094 67.625 704.812 67.0625C702.781 66.2188 701.766 64.9375 701.766 63.2188C701.766 62.0938 702.281 60.9844 703.312 59.8906C702 59.0781 701.328 57.8438 701.297 56.1875C701.297 55.7812 701.344 55.375 701.438 54.9688C701.938 53.25 703.188 52.3906 705.188 52.3906C704.969 52.2656 704.75 52.125 704.531 51.9688C702.219 50.4062 701.062 48.4375 701.062 46.0625C701.062 44.25 701.656 42.6719 702.844 41.3281C704.5 39.5156 706.734 38.6094 709.547 38.6094ZM709.547 66.6875C711.016 66.6875 712.375 66.5312 713.625 66.2188C716.188 65.5938 717.469 64.5938 717.469 63.2188C717.469 62.8438 717.422 62.5312 717.328 62.2812C716.953 61.25 715.594 60.7188 713.25 60.6875L706.031 60.5938C705.625 60.5938 705.109 60.5312 704.484 60.4062C703.766 61.25 703.391 62.0938 703.359 62.9375C703.359 63.375 703.469 63.8125 703.688 64.25C704.5 65.875 706.453 66.6875 709.547 66.6875ZM748.734 59.4688C746.547 59.4375 745.266 58.0312 744.891 55.25C744.609 55.9062 744.188 56.5312 743.625 57.125C742.062 58.6875 740.141 59.4688 737.859 59.4688C736.922 59.4688 736.031 59.2969 735.188 58.9531C733.094 58.0781 732.047 56.4531 732.047 54.0781C732.047 53.3906 732.141 52.75 732.328 52.1562C733.391 49.0938 737.594 47.5625 744.938 47.5625V44.6094C744.844 41.5781 743.328 39.9688 740.391 39.7812C739.141 39.7812 738.219 40.1719 737.625 40.9531C737.469 41.1719 737.172 41.8594 736.734 43.0156C736.391 43.9219 735.859 44.375 735.141 44.375C734.984 44.375 734.828 44.3594 734.672 44.3281C733.766 44.1719 733.312 43.6094 733.312 42.6406C733.312 42.1094 733.5 41.5781 733.875 41.0469C735.062 39.4219 737.406 38.6094 740.906 38.6094C741.188 38.6094 741.469 38.6094 741.75 38.6094C746.219 38.8594 748.453 41.2188 748.453 45.6875V55.5781C748.484 57.1406 748.906 57.9531 749.719 58.0156C750.719 57.9844 751.328 56.8281 751.547 54.5469L752.766 54.5938C752.766 54.75 752.75 54.9219 752.719 55.1094C752.469 58.0156 751.141 59.4688 748.734 59.4688ZM739.406 57.5938C740.094 57.5938 740.797 57.4375 741.516 57.125C743.328 56.25 744.469 54.7344 744.938 52.5781V48.8281C742.5 48.8594 740.641 49.0156 739.359 49.2969C736.953 49.8594 735.75 51.1875 735.75 53.2812C735.75 53.8125 735.797 54.2969 735.891 54.7344C736.328 56.6406 737.5 57.5938 739.406 57.5938ZM763.547 57.8281C763.734 57.8281 763.891 57.8438 764.016 57.875C764.484 57.9375 764.719 58.3125 764.719 59H754.406V57.8281C755.469 57.8281 756.234 57.75 756.703 57.5938C757.516 57.3125 757.922 56.4531 757.922 55.0156V40.25H754.406V39.0781H761.203L761.391 43.7656C761.734 42.8906 762.188 42.0938 762.75 41.375C764.25 39.5312 766.156 38.6094 768.469 38.6094C769.625 38.6094 770.703 38.9062 771.703 39.5C773.859 40.8438 774.938 43.0781 774.938 46.2031V57.8281H777.281C777.469 57.8281 777.625 57.8438 777.75 57.875C778.219 57.9375 778.453 58.3125 778.453 59H767.906V57.8281C768.969 57.8281 769.734 57.75 770.203 57.5938C771.016 57.3125 771.422 56.4531 771.422 55.0156V45.7344C771.422 44.8281 771.281 44.0156 771 43.2969C770.312 41.5156 769.016 40.625 767.109 40.625C766.234 40.625 765.375 40.8906 764.531 41.4219C762.562 42.7031 761.531 44.7969 761.438 47.7031V57.8281H763.547ZM797.484 59L797.109 54.0312C795.578 57.5938 793.109 59.4062 789.703 59.4688C788.047 59.4688 786.531 58.9844 785.156 58.0156C782.719 56.2344 781.5 53.4062 781.5 49.5312C781.5 47.1875 782.031 45.0781 783.094 43.2031C784.844 40.1406 787.438 38.6094 790.875 38.6094C793.469 38.6094 795.531 39.4531 797.062 41.1406V29.7031H792.609V28.5312H800.578L800.672 57.8281H803.016C803.203 57.8281 803.359 57.8438 803.484 57.875C803.953 57.9375 804.188 58.3125 804.188 59H797.484ZM785.484 48.9688C785.484 50.4375 785.641 51.75 785.953 52.9062C786.734 56.0312 788.406 57.5938 790.969 57.5938C792.25 57.5938 793.391 57.1406 794.391 56.2344C796.266 54.5469 797.203 51.8281 797.203 48.0781C797.203 46.2969 796.938 44.75 796.406 43.4375C795.438 41 793.812 39.7812 791.531 39.7812C790.625 39.7812 789.797 39.9844 789.047 40.3906C786.672 41.7031 785.484 44.5625 785.484 48.9688ZM827.812 59H816.328V57.7812H820.078V32.0938H816.328V30.875H827.812V32.0938H824.109V43.8125H838.5V32.0938H834.75V30.875H846.234V32.0938H842.531V57.7812H845.016C845.172 57.7812 845.328 57.7969 845.484 57.8281C845.984 57.9219 846.234 58.3125 846.234 59H834.75V57.7812H838.5V45.1719H824.109V57.7812H826.594C826.75 57.7812 826.906 57.7969 827.062 57.8281C827.562 57.9219 827.812 58.3125 827.812 59ZM859.781 39.7812C858.969 39.7812 858.203 39.9688 857.484 40.3438C855.297 41.4375 854.125 43.7812 853.969 47.375L858.938 47.5156C860.375 47.5469 861.484 47.4844 862.266 47.3281C863.766 46.9844 864.516 46.0312 864.516 44.4688C864.516 43.7812 864.391 43.1406 864.141 42.5469C863.422 40.7031 861.969 39.7812 859.781 39.7812ZM867.938 54.5C867.75 54.9375 867.531 55.375 867.281 55.8125C865.688 58.25 863.203 59.4688 859.828 59.4688C857.703 59.4688 855.812 58.9219 854.156 57.8281C851.375 55.9531 849.984 53.0781 849.984 49.2031C849.984 47.0781 850.422 45.1719 851.297 43.4844C852.984 40.2344 855.781 38.6094 859.688 38.6094C861.688 38.6094 863.453 39.0625 864.984 39.9688C867.141 41.2188 868.219 42.9062 868.219 45.0312C868.219 46.1875 867.797 47.0781 866.953 47.7031C865.859 48.4844 863.406 48.8438 859.594 48.7812L853.969 48.6875C854 50 854.141 51.2031 854.391 52.2969C855.234 56.2031 857.297 58.1562 860.578 58.1562C860.859 58.1562 861.156 58.1406 861.469 58.1094C863.906 57.7969 865.672 56.4531 866.766 54.0781L867.938 54.5ZM888.188 59.4688C886 59.4375 884.719 58.0312 884.344 55.25C884.062 55.9062 883.641 56.5312 883.078 57.125C881.516 58.6875 879.594 59.4688 877.312 59.4688C876.375 59.4688 875.484 59.2969 874.641 58.9531C872.547 58.0781 871.5 56.4531 871.5 54.0781C871.5 53.3906 871.594 52.75 871.781 52.1562C872.844 49.0938 877.047 47.5625 884.391 47.5625V44.6094C884.297 41.5781 882.781 39.9688 879.844 39.7812C878.594 39.7812 877.672 40.1719 877.078 40.9531C876.922 41.1719 876.625 41.8594 876.188 43.0156C875.844 43.9219 875.312 44.375 874.594 44.375C874.438 44.375 874.281 44.3594 874.125 44.3281C873.219 44.1719 872.766 43.6094 872.766 42.6406C872.766 42.1094 872.953 41.5781 873.328 41.0469C874.516 39.4219 876.859 38.6094 880.359 38.6094C880.641 38.6094 880.922 38.6094 881.203 38.6094C885.672 38.8594 887.906 41.2188 887.906 45.6875V55.5781C887.938 57.1406 888.359 57.9531 889.172 58.0156C890.172 57.9844 890.781 56.8281 891 54.5469L892.219 54.5938C892.219 54.75 892.203 54.9219 892.172 55.1094C891.922 58.0156 890.594 59.4688 888.188 59.4688ZM878.859 57.5938C879.547 57.5938 880.25 57.4375 880.969 57.125C882.781 56.25 883.922 54.7344 884.391 52.5781V48.8281C881.953 48.8594 880.094 49.0156 878.812 49.2969C876.406 49.8594 875.203 51.1875 875.203 53.2812C875.203 53.8125 875.25 54.2969 875.344 54.7344C875.781 56.6406 876.953 57.5938 878.859 57.5938ZM893.391 40.25V39.0781H896.672V34.625L900.188 33.6406V39.0781H907.453V40.25H900.188V54.5C900.219 56.8438 901.078 58.0469 902.766 58.1094C904.266 57.8906 905.406 56.4844 906.188 53.8906L907.453 54.125C907.453 54.1562 907.453 54.1875 907.453 54.2188C906.734 57.75 904.938 59.5156 902.062 59.5156C898.688 59.3906 896.891 57.375 896.672 53.4688V40.25H893.391ZM918.703 57.8281C918.859 57.8281 919.016 57.8438 919.172 57.875C919.641 57.9375 919.875 58.3125 919.875 59H909.094V57.8281C910.156 57.8281 910.922 57.7656 911.391 57.6406C912.359 57.3281 912.844 56.4531 912.844 55.0156V40.25H909.094V39.0781H916.359V57.8281H918.703ZM916.922 32.2344C916.922 32.6094 916.844 32.9688 916.688 33.3125C916.25 34.3125 915.484 34.8125 914.391 34.8125C914.047 34.8125 913.703 34.75 913.359 34.625C912.328 34.1875 911.812 33.3906 911.812 32.2344C911.812 31.8594 911.891 31.5 912.047 31.1562C912.516 30.1562 913.297 29.6562 914.391 29.6562C914.734 29.6562 915.094 29.7344 915.469 29.8906C916.438 30.3594 916.922 31.1406 916.922 32.2344ZM931.828 57.8281C932.016 57.8281 932.172 57.8438 932.297 57.875C932.766 57.9375 933 58.3125 933 59H922.688V57.8281C923.75 57.8281 924.516 57.75 924.984 57.5938C925.797 57.3125 926.203 56.4531 926.203 55.0156V40.25H922.688V39.0781H929.484L929.672 43.7656C930.016 42.8906 930.469 42.0938 931.031 41.375C932.531 39.5312 934.438 38.6094 936.75 38.6094C937.906 38.6094 938.984 38.9062 939.984 39.5C942.141 40.8438 943.219 43.0781 943.219 46.2031V57.8281H945.562C945.75 57.8281 945.906 57.8438 946.031 57.875C946.5 57.9375 946.734 58.3125 946.734 59H936.188V57.8281C937.25 57.8281 938.016 57.75 938.484 57.5938C939.297 57.3125 939.703 56.4531 939.703 55.0156V45.7344C939.703 44.8281 939.562 44.0156 939.281 43.2969C938.594 41.5156 937.297 40.625 935.391 40.625C934.516 40.625 933.656 40.8906 932.812 41.4219C930.844 42.7031 929.812 44.7969 929.719 47.7031V57.8281H931.828ZM954 46.0156C954.031 50.2344 955.594 52.375 958.688 52.4375C961.719 52.4062 963.266 50.2656 963.328 46.0156C963.297 41.9219 961.75 39.8438 958.688 39.7812C955.625 39.8125 954.062 41.8906 954 46.0156ZM958.734 38.6094C960.359 38.6094 961.875 38.9688 963.281 39.6875C963.469 39.0938 963.734 38.5469 964.078 38.0469C964.984 36.7344 966.172 36.0781 967.641 36.0781C967.984 36.0781 968.328 36.1406 968.672 36.2656C969.578 36.6094 970.031 37.2656 970.031 38.2344C969.906 39.0469 969.453 39.5469 968.672 39.7344C968.391 39.7344 968.078 39.5781 967.734 39.2656C967.234 38.7969 966.766 38.5625 966.328 38.5625C966.203 38.5625 966.078 38.5781 965.953 38.6094C965.172 38.7969 964.641 39.3906 964.359 40.3906C966.141 41.7969 967.047 43.6719 967.078 46.0156C967.078 47.8594 966.484 49.4531 965.297 50.7969C963.641 52.6719 961.422 53.6094 958.641 53.6094L954.516 53.5625C954.266 53.5625 954.031 53.5781 953.812 53.6094C952.781 53.8281 952.266 54.3438 952.266 55.1562C952.297 56.3125 953.031 56.9375 954.469 57.0312L963 57.2188C963.438 57.2188 963.859 57.25 964.266 57.3125C967.359 57.7188 968.906 59.2656 968.906 61.9531C968.906 62.8281 968.656 63.6562 968.156 64.4375C966.625 66.75 963.484 67.9062 958.734 67.9062C956.859 67.9062 955.281 67.625 954 67.0625C951.969 66.2188 950.953 64.9375 950.953 63.2188C950.953 62.0938 951.469 60.9844 952.5 59.8906C951.188 59.0781 950.516 57.8438 950.484 56.1875C950.484 55.7812 950.531 55.375 950.625 54.9688C951.125 53.25 952.375 52.3906 954.375 52.3906C954.156 52.2656 953.938 52.125 953.719 51.9688C951.406 50.4062 950.25 48.4375 950.25 46.0625C950.25 44.25 950.844 42.6719 952.031 41.3281C953.688 39.5156 955.922 38.6094 958.734 38.6094ZM958.734 66.6875C960.203 66.6875 961.562 66.5312 962.812 66.2188C965.375 65.5938 966.656 64.5938 966.656 63.2188C966.656 62.8438 966.609 62.5312 966.516 62.2812C966.141 61.25 964.781 60.7188 962.438 60.6875L955.219 60.5938C954.812 60.5938 954.297 60.5312 953.672 60.4062C952.953 61.25 952.578 62.0938 952.547 62.9375C952.547 63.375 952.656 63.8125 952.875 64.25C953.688 65.875 955.641 66.6875 958.734 66.6875Z" fill="#00308F"/>
<rect width="500" height="90" rx="15" fill="#01308F"/>
<path d="M68.375 77.625C60.4583 81.9583 52.3333 84.1667 44 84.25C32.1667 84.25 22.625 80.375 15.375 72.625C8.625 65.2083 5.25 56.125 5.25 45.375C5.25 36.375 7.75 28.4167 12.75 21.5C19.9167 11.6667 30.25 6.75 43.75 6.75C53.0833 6.75 61.125 8.95833 67.875 13.375C67.875 11.625 67.9583 10.2917 68.125 9.375C68.4583 8.04167 69.625 7.375 71.625 7.375L72 31H68.5C64.4167 17.4167 56.5417 10.5417 44.875 10.375C41.125 10.375 37.75 11.125 34.75 12.625C25.4167 17.375 20.75 28.25 20.75 45.25C20.75 46.8333 20.7917 48.4167 20.875 50C21.9583 70.4167 29.75 80.625 44.25 80.625C56.6667 80.5417 64.9167 73.5417 69 59.625H72.375V83.625C71.4583 83.625 70.7083 83.5417 70.125 83.375C68.875 82.9583 68.2917 81.0417 68.375 77.625ZM114.125 83H80.75V79.75H90.75V11.25H80.75V8H114.125V11.25H104.125V42.5H139.875V11.25H129.875V8H163.375V11.25H153.25V79.75H160C161.583 79.9167 162.708 81 163.375 83H129.875V79.75H139.875V46.125H104.125V79.75H110.875C111.292 79.75 111.708 79.7917 112.125 79.875C113.458 80.125 114.125 81.1667 114.125 83ZM204.75 83H171.375V79.75H181.375V11.25H171.375V8H210.25C216.833 8 222.417 9.54167 227 12.625C232.417 16.375 235.125 21.3333 235.125 27.5C235.125 29.75 234.75 31.9583 234 34.125C231.5 40.7917 226 45.2083 217.5 47.375L237.375 79.75H240.875C241.375 79.75 241.833 79.7917 242.25 79.875C243.417 80.0417 244 81.0833 244 83H223.875L204.375 48.625H194.75V79.75H204.75V83ZM205 11.25H194.75V45H205.625C208.958 45 211.875 44.0417 214.375 42.125C218.458 38.875 220.5 34.125 220.5 27.875C220.5 25.2917 220.042 22.8333 219.125 20.5C216.708 14.3333 212 11.25 205 11.25ZM281.375 83H248V79.75H258V11.25H248V8H281.375V11.25H271.375V79.75H278.125C278.542 79.75 278.958 79.7917 279.375 79.875C280.708 80.125 281.375 81.1667 281.375 83ZM347.75 62.875C347.75 68.125 345.875 72.625 342.125 76.375C336.708 81.625 329 84.25 319 84.25C310.417 84.25 302.958 82.125 296.625 77.875C296.625 79.4583 296.542 80.625 296.375 81.375C295.958 82.625 294.708 83.25 292.625 83.25V57.125H296.875C297.042 59.7917 297.458 62.2917 298.125 64.625C300.875 75.375 307.542 80.75 318.125 80.75C321.042 80.75 323.75 80.2083 326.25 79.125C331.583 76.7917 334.25 72.7083 334.25 66.875C334.25 64.7917 333.792 62.875 332.875 61.125C330.958 57.625 326.333 54.125 319 50.625C310.917 46.875 306.25 44.625 305 43.875C297.167 39.375 293.25 33.625 293.25 26.625C293.25 21.875 294.958 17.7917 298.375 14.375C303.375 9.29167 310.542 6.75 319.875 6.75C327.375 6.75 334.292 8.375 340.625 11.625C340.625 10.875 340.667 10.2083 340.75 9.625C341.083 8.125 342.375 7.375 344.625 7.375V29.5H340.375C340.375 24.9167 339.25 21 337 17.75C333.417 12.8333 328.167 10.375 321.25 10.375C318.833 10.375 316.583 10.75 314.5 11.5C309.417 13.5 306.875 17.125 306.875 22.375C306.875 24.4583 307.333 26.3333 308.25 28C310.083 31.5 314.625 34.9167 321.875 38.25C329.958 42 334.667 44.2917 336 45.125C343.833 49.7083 347.75 55.625 347.75 62.875ZM407.375 83H370.125V79.75H382V11.25H377.125C370.375 11.3333 365.75 15.5833 363.25 24L360.5 33.5H356.875L357.375 8H420.375L421 33.5H417.375L414.625 24C412.208 15.5833 407.542 11.3333 400.625 11.25H395.375V79.75H404C405.583 79.9167 406.708 81 407.375 83ZM477.25 83H443.25V79.75H453.5V52.375L430.375 11.25H423.875V8H454.875V11.25H445.375L464.625 47L482.75 11.25H472.75V8H494.875C494.875 8.41667 494.833 8.83333 494.75 9.25C494.5 10.5833 493.458 11.25 491.625 11.25C488.875 11.3333 486.667 12.5 485 14.75L467 51.25V79.75H473.875C475.458 79.9167 476.583 81 477.25 83Z" fill="white"/>
</svg>
